# xmcd
#
# Track frame offsets:
#	150
#	19952
#	39227
#	54807
#	68963
#	88173
#	107828
#	126002
#	148395
#	171813
#	189039
#
# Disc length: 2713 seconds
#
# Revision: 0
# Processed by: cddbd v1.5.2PL0 Copyright (c) Steve Scherf et al.
# Submitted via: MusicManager 7.3.0.0 
#
DISCID=920a970b
DTITLE=Various Artist - First Train Home - Disk 01
DYEAR=1139
DGENRE=blues
TTITLE0=Chicken Shack - The Way It Is
TTITLE1=Brian Knight - Honey Bee
TTITLE2=Tom Rush - If Your Man Gets Busted
TTITLE3=Sam Mitchell - Crossroads
TTITLE4=Ry Cooder - Feeling Bad Blues
TTITLE5=Terry Garland - Aberdeen
TTITLE6=Fleetwood Mac - First Train Home
TTITLE7=Stevie Ray Vaughan - Dirt Pool
TTITLE8=Canned Heat - Marie Laveau
TTITLE9=Dutch Mason Blues Band - Walking Blues
TTITLE10=Melvin Taylor - TV Mamma
EXTD=
EXTT0=
EXTT1=
EXTT2=
EXTT3=
EXTT4=
EXTT5=
EXTT6=
EXTT7=
EXTT8=
EXTT9=
EXTT10=
PLAYORDER=
